<svg id="visual" viewBox="0 0 900 600" width="900" height="600" xmlns="http://www.w3.org/2000/svg" xmlns:xlink="http://www.w3.org/1999/xlink" version="1.1"><rect x="0" y="0" width="900" height="600" fill="#f4f4f4"></rect><defs><linearGradient id="grad1_0" x1="33.3%" y1="0%" x2="100%" y2="100%"><stop offset="20%" stop-color="#f4f4f4" stop-opacity="1"></stop><stop offset="80%" stop-color="#f4f4f4" stop-opacity="1"></stop></linearGradient></defs><defs><linearGradient id="grad2_0" x1="0%" y1="0%" x2="66.7%" y2="100%"><stop offset="20%" stop-color="#f4f4f4" stop-opacity="1"></stop><stop offset="80%" stop-color="#f4f4f4" stop-opacity="1"></stop></linearGradient></defs><g transform="translate(900, 0)"><path d="M0 486.7C-58.3 470.7 -116.6 454.6 -180.2 435.1C-243.9 415.6 -313 392.7 -344.2 344.2C-375.4 295.7 -368.7 221.6 -386.2 160C-403.6 98.3 -445.2 49.2 -486.7 0L0 0Z" fill="#75dff1"></path></g><g transform="translate(0, 600)"><path d="M0 -486.7C57 -462.6 114.1 -438.5 173 -417.6C231.9 -396.7 292.6 -379.1 341.5 -341.5C390.4 -304 427.5 -246.5 449.7 -186.3C471.9 -126 479.3 -63 486.7 0L0 0Z" fill="#75dff1"></path></g></svg>