<svg id="visual" viewBox="0 0 900 450" width="900" height="450" xmlns="http://www.w3.org/2000/svg" xmlns:xlink="http://www.w3.org/1999/xlink" version="1.1"><rect x="0" y="0" width="900" height="450" fill="#d8d2d2"></rect><defs><linearGradient id="grad1_0" x1="50%" y1="100%" x2="100%" y2="0%"><stop offset="10%" stop-color="#5c5d5f" stop-opacity="1"></stop><stop offset="90%" stop-color="#5c5d5f" stop-opacity="1"></stop></linearGradient></defs><defs><linearGradient id="grad1_1" x1="50%" y1="100%" x2="100%" y2="0%"><stop offset="10%" stop-color="#5c5d5f" stop-opacity="1"></stop><stop offset="90%" stop-color="#989598" stop-opacity="1"></stop></linearGradient></defs><defs><linearGradient id="grad1_2" x1="50%" y1="100%" x2="100%" y2="0%"><stop offset="10%" stop-color="#d8d2d2" stop-opacity="1"></stop><stop offset="90%" stop-color="#989598" stop-opacity="1"></stop></linearGradient></defs><defs><linearGradient id="grad2_0" x1="0%" y1="100%" x2="50%" y2="0%"><stop offset="10%" stop-color="#5c5d5f" stop-opacity="1"></stop><stop offset="90%" stop-color="#5c5d5f" stop-opacity="1"></stop></linearGradient></defs><defs><linearGradient id="grad2_1" x1="0%" y1="100%" x2="50%" y2="0%"><stop offset="10%" stop-color="#989598" stop-opacity="1"></stop><stop offset="90%" stop-color="#5c5d5f" stop-opacity="1"></stop></linearGradient></defs><defs><linearGradient id="grad2_2" x1="0%" y1="100%" x2="50%" y2="0%"><stop offset="10%" stop-color="#989598" stop-opacity="1"></stop><stop offset="90%" stop-color="#d8d2d2" stop-opacity="1"></stop></linearGradient></defs><g transform="translate(900, 450)"><path d="M-427.5 0C-415.9 -52.9 -404.2 -105.7 -386.2 -160C-368.1 -214.2 -343.6 -269.8 -302.3 -302.3C-261 -334.8 -202.8 -344.2 -149.6 -361.2C-96.4 -378.3 -48.2 -402.9 0 -427.5L0 0Z" fill="#b8b3b5"></path><path d="M-285 0C-277.2 -35.2 -269.5 -70.5 -257.5 -106.6C-245.4 -142.8 -229.1 -179.9 -201.5 -201.5C-174 -223.2 -135.2 -229.5 -99.8 -240.8C-64.3 -252.2 -32.1 -268.6 0 -285L0 0Z" fill="#79797b"></path><path d="M-142.5 0C-138.6 -17.6 -134.7 -35.2 -128.7 -53.3C-122.7 -71.4 -114.5 -89.9 -100.8 -100.8C-87 -111.6 -67.6 -114.7 -49.9 -120.4C-32.1 -126.1 -16.1 -134.3 0 -142.5L0 0Z" fill="#5c5d5f"></path></g><g transform="translate(0, 0)"><path d="M427.5 0C422.5 56.7 417.4 113.5 395 163.6C372.5 213.7 332.5 257.1 289.2 289.2C245.9 321.3 199.2 341.9 150.4 363.1C101.6 384.2 50.8 405.9 0 427.5L0 0Z" fill="#b8b3b5"></path><path d="M285 0C281.6 37.8 278.3 75.7 263.3 109.1C248.3 142.5 221.7 171.4 192.8 192.8C163.9 214.2 132.8 228 100.3 242.1C67.8 256.2 33.9 270.6 0 285L0 0Z" fill="#79797b"></path><path d="M142.5 0C140.8 18.9 139.1 37.8 131.7 54.5C124.2 71.2 110.8 85.7 96.4 96.4C82 107.1 66.4 114 50.1 121C33.9 128.1 16.9 135.3 0 142.5L0 0Z" fill="#5c5d5f"></path></g></svg>