<svg id="visual" viewBox="0 0 900 600" width="900" height="600" xmlns="http://www.w3.org/2000/svg" xmlns:xlink="http://www.w3.org/1999/xlink" version="1.1"><rect x="0" y="0" width="900" height="600" fill="#accee6"></rect><path d="M0 360L129 360L129 280L257 280L257 333L386 333L386 286L514 286L514 318L643 318L643 281L771 281L771 331L900 331L900 298L900 601L900 601L771 601L771 601L643 601L643 601L514 601L514 601L386 601L386 601L257 601L257 601L129 601L129 601L0 601Z" fill="#559ca8"></path><path d="M0 347L129 347L129 355L257 355L257 358L386 358L386 464L514 464L514 416L643 416L643 393L771 393L771 420L900 420L900 447L900 601L900 601L771 601L771 601L643 601L643 601L514 601L514 601L386 601L386 601L257 601L257 601L129 601L129 601L0 601Z" fill="#55afc4"></path><path d="M0 491L129 491L129 480L257 480L257 498L386 498L386 492L514 492L514 452L643 452L643 443L771 443L771 529L900 529L900 448L900 601L900 601L771 601L771 601L643 601L643 601L514 601L514 601L386 601L386 601L257 601L257 601L129 601L129 601L0 601Z" fill="#57c1e1"></path></svg>